<svg xmlns="http://www.w3.org/2000/svg" xmlns:xlink="http://www.w3.org/1999/xlink" contentstyletype="text/css" height="383px" preserveAspectRatio="none" style="width:2470px;height:383px;background:#FFFFFF;" version="1.1" viewBox="0 0 2470 383" width="2470px" zoomAndPan="magnify"><defs></defs><g><g id="elem_v1"><rect fill="#F1F1F1" height="77.1875" style="stroke:#181818;stroke-width:0.5;" width="167.21" x="1717.86" y="7"></rect><text fill="#000000" font-family="sans-serif" font-size="14" lengthAdjust="spacing" textLength="130.9766" x="1735.9767" y="21.9951">villamos1:Villamos</text><line style="stroke:#181818;stroke-width:0.5;" x1="1718.86" x2="1884.07" y1="27.2969" y2="27.2969"></line><text fill="#000000" font-family="sans-serif" font-size="14" lengthAdjust="spacing" textLength="114.5225" x="1723.86" y="44.292">azonosito = 101</text><text fill="#000000" font-family="sans-serif" font-size="14" lengthAdjust="spacing" textLength="130.1494" x="1723.86" y="60.5889">gyartasiEv = 2015</text><text fill="#000000" font-family="sans-serif" font-size="14" lengthAdjust="spacing" textLength="155.21" x="1723.86" y="76.8857">ujkoriAr = 150000000</text></g><g id="elem_b1"><rect fill="#F1F1F1" height="77.1875" style="stroke:#181818;stroke-width:0.5;" width="158.3027" x="564.32" y="7"></rect><text fill="#000000" font-family="sans-serif" font-size="14" lengthAdjust="spacing" textLength="110.9336" x="588.0046" y="21.9951">busz1:Autobusz</text><line style="stroke:#181818;stroke-width:0.5;" x1="565.32" x2="721.6227" y1="27.2969" y2="27.2969"></line><text fill="#000000" font-family="sans-serif" font-size="14" lengthAdjust="spacing" textLength="114.5225" x="570.32" y="44.292">azonosito = 201</text><text fill="#000000" font-family="sans-serif" font-size="14" lengthAdjust="spacing" textLength="130.1494" x="570.32" y="60.5889">gyartasiEv = 2018</text><text fill="#000000" font-family="sans-serif" font-size="14" lengthAdjust="spacing" textLength="146.3027" x="570.32" y="76.8857">ujkoriAr = 80000000</text></g><g id="elem_b2"><rect fill="#F1F1F1" height="77.1875" style="stroke:#181818;stroke-width:0.5;" width="158.3027" x="2182.32" y="7"></rect><text fill="#000000" font-family="sans-serif" font-size="14" lengthAdjust="spacing" textLength="110.9336" x="2206.0046" y="21.9951">busz2:Autobusz</text><line style="stroke:#181818;stroke-width:0.5;" x1="2183.32" x2="2339.6227" y1="27.2969" y2="27.2969"></line><text fill="#000000" font-family="sans-serif" font-size="14" lengthAdjust="spacing" textLength="114.5225" x="2188.32" y="44.292">azonosito = 202</text><text fill="#000000" font-family="sans-serif" font-size="14" lengthAdjust="spacing" textLength="130.1494" x="2188.32" y="60.5889">gyartasiEv = 2016</text><text fill="#000000" font-family="sans-serif" font-size="14" lengthAdjust="spacing" textLength="146.3027" x="2188.32" y="76.8857">ujkoriAr = 75000000</text></g><g id="elem_bv"><rect fill="#F1F1F1" height="36.2969" style="stroke:#181818;stroke-width:0.5;" width="139.1729" x="1244.88" y="181.64"></rect><text fill="#000000" font-family="sans-serif" font-size="14" lengthAdjust="spacing" textLength="125.1729" x="1251.88" y="196.6351">belvaros:Belvaros</text><line style="stroke:#181818;stroke-width:0.5;" x1="1245.88" x2="1383.0529" y1="201.9369" y2="201.9369"></line></g><g id="elem_kv"><rect fill="#F1F1F1" height="36.2969" style="stroke:#181818;stroke-width:0.5;" width="138.4893" x="2192.23" y="181.64"></rect><text fill="#000000" font-family="sans-serif" font-size="14" lengthAdjust="spacing" textLength="124.4893" x="2199.23" y="196.6351">kulvaros:Kulvaros</text><line style="stroke:#181818;stroke-width:0.5;" x1="2193.23" x2="2329.7193" y1="201.9369" y2="201.9369"></line></g><g id="elem_sz1"><rect fill="#F1F1F1" height="44.5938" style="stroke:#181818;stroke-width:0.5;" width="166.5264" x="1846.21" y="323.53"></rect><text fill="#000000" font-family="sans-serif" font-size="14" lengthAdjust="spacing" textLength="112.2871" x="1873.3296" y="338.5251">szerviz1:Szerviz</text><line style="stroke:#181818;stroke-width:0.5;" x1="1847.21" x2="2011.7364" y1="343.8269" y2="343.8269"></line><text fill="#000000" font-family="sans-serif" font-size="14" lengthAdjust="spacing" textLength="154.5264" x="1852.21" y="360.822">nev = "FőSzerviz Kft."</text></g><g id="elem_sz2"><rect fill="#F1F1F1" height="44.5938" style="stroke:#181818;stroke-width:0.5;" width="175.6592" x="360.64" y="323.53"></rect><text fill="#000000" font-family="sans-serif" font-size="14" lengthAdjust="spacing" textLength="112.2871" x="392.326" y="338.5251">szerviz2:Szerviz</text><line style="stroke:#181818;stroke-width:0.5;" x1="361.64" x2="535.2992" y1="343.8269" y2="343.8269"></line><text fill="#000000" font-family="sans-serif" font-size="14" lengthAdjust="spacing" textLength="163.6592" x="366.64" y="360.822">nev = "BuszDoktor Bt."</text></g><g id="elem_ml1"><rect fill="#F1F1F1" height="77.1875" style="stroke:#181818;stroke-width:0.5;" width="227.9063" x="1929.52" y="161.19"></rect><text fill="#000000" font-family="sans-serif" font-size="14" lengthAdjust="spacing" textLength="150.917" x="1968.0146" y="176.1851">munkalap1:Munkalap</text><line style="stroke:#181818;stroke-width:0.5;" x1="1930.52" x2="2156.4263" y1="181.4869" y2="181.4869"></line><text fill="#000000" font-family="sans-serif" font-size="14" lengthAdjust="spacing" textLength="170.543" x="1935.52" y="198.482">kezdete = "2023-01-15"</text><text fill="#000000" font-family="sans-serif" font-size="14" lengthAdjust="spacing" textLength="149.2695" x="1935.52" y="214.7789">vege = "2023-01-20"</text><text fill="#000000" font-family="sans-serif" font-size="14" lengthAdjust="spacing" textLength="215.9063" x="1935.52" y="231.0757">tipus = SzervizTipus.Idoszakos</text></g><g id="elem_ml2"><rect fill="#F1F1F1" height="77.1875" style="stroke:#181818;stroke-width:0.5;" width="205.3818" x="1601.78" y="161.19"></rect><text fill="#000000" font-family="sans-serif" font-size="14" lengthAdjust="spacing" textLength="150.917" x="1629.0124" y="176.1851">munkalap2:Munkalap</text><line style="stroke:#181818;stroke-width:0.5;" x1="1602.78" x2="1806.1618" y1="181.4869" y2="181.4869"></line><text fill="#000000" font-family="sans-serif" font-size="14" lengthAdjust="spacing" textLength="170.543" x="1607.78" y="198.482">kezdete = "2023-05-10"</text><text fill="#000000" font-family="sans-serif" font-size="14" lengthAdjust="spacing" textLength="80.5547" x="1607.78" y="214.7789">vege = null</text><text fill="#000000" font-family="sans-serif" font-size="14" lengthAdjust="spacing" textLength="193.3818" x="1607.78" y="231.0757">tipus = SzervizTipus.Javitas</text></g><g id="elem_ml3"><rect fill="#F1F1F1" height="77.1875" style="stroke:#181818;stroke-width:0.5;" width="227.9063" x="287.52" y="161.19"></rect><text fill="#000000" font-family="sans-serif" font-size="14" lengthAdjust="spacing" textLength="150.917" x="326.0146" y="176.1851">munkalap3:Munkalap</text><line style="stroke:#181818;stroke-width:0.5;" x1="288.52" x2="514.4263" y1="181.4869" y2="181.4869"></line><text fill="#000000" font-family="sans-serif" font-size="14" lengthAdjust="spacing" textLength="170.543" x="293.52" y="198.482">kezdete = "2023-03-05"</text><text fill="#000000" font-family="sans-serif" font-size="14" lengthAdjust="spacing" textLength="149.2695" x="293.52" y="214.7789">vege = "2023-03-08"</text><text fill="#000000" font-family="sans-serif" font-size="14" lengthAdjust="spacing" textLength="215.9063" x="293.52" y="231.0757">tipus = SzervizTipus.Idoszakos</text></g><g id="elem_ml4"><rect fill="#F1F1F1" height="77.1875" style="stroke:#181818;stroke-width:0.5;" width="205.3818" x="577.78" y="161.19"></rect><text fill="#000000" font-family="sans-serif" font-size="14" lengthAdjust="spacing" textLength="150.917" x="605.0124" y="176.1851">munkalap4:Munkalap</text><line style="stroke:#181818;stroke-width:0.5;" x1="578.78" x2="782.1618" y1="181.4869" y2="181.4869"></line><text fill="#000000" font-family="sans-serif" font-size="14" lengthAdjust="spacing" textLength="170.543" x="583.78" y="198.482">kezdete = "2023-06-20"</text><text fill="#000000" font-family="sans-serif" font-size="14" lengthAdjust="spacing" textLength="80.5547" x="583.78" y="214.7789">vege = null</text><text fill="#000000" font-family="sans-serif" font-size="14" lengthAdjust="spacing" textLength="193.3818" x="583.78" y="231.0757">tipus = SzervizTipus.Javitas</text></g><g id="elem_mf1"><rect fill="#F1F1F1" height="60.8906" style="stroke:#181818;stroke-width:0.5;" width="296.1084" x="2167.42" y="315.38"></rect><text fill="#000000" font-family="sans-serif" font-size="14" lengthAdjust="spacing" textLength="140.6563" x="2245.1461" y="330.3751">mf1:Munkafolyamat</text><line style="stroke:#181818;stroke-width:0.5;" x1="2168.42" x2="2462.5284" y1="335.6769" y2="335.6769"></line><text fill="#000000" font-family="sans-serif" font-size="14" lengthAdjust="spacing" textLength="284.1084" x="2173.42" y="352.672">megnevezes = "Fékrendszer ellenőrzés"</text><text fill="#000000" font-family="sans-serif" font-size="14" lengthAdjust="spacing" textLength="116.0127" x="2173.42" y="368.9689">koltseg = 45000</text></g><g id="elem_mf2"><rect fill="#F1F1F1" height="60.8906" style="stroke:#181818;stroke-width:0.5;" width="199.6396" x="1342.65" y="315.38"></rect><text fill="#000000" font-family="sans-serif" font-size="14" lengthAdjust="spacing" textLength="140.6563" x="1372.1417" y="330.3751">mf2:Munkafolyamat</text><line style="stroke:#181818;stroke-width:0.5;" x1="1343.65" x2="1541.2896" y1="335.6769" y2="335.6769"></line><text fill="#000000" font-family="sans-serif" font-size="14" lengthAdjust="spacing" textLength="187.6396" x="1348.65" y="352.672">megnevezes = "Olajcsere"</text><text fill="#000000" font-family="sans-serif" font-size="14" lengthAdjust="spacing" textLength="116.0127" x="1348.65" y="368.9689">koltseg = 25000</text></g><g id="elem_mf3"><rect fill="#F1F1F1" height="60.8906" style="stroke:#181818;stroke-width:0.5;" width="225.1992" x="819.87" y="315.38"></rect><text fill="#000000" font-family="sans-serif" font-size="14" lengthAdjust="spacing" textLength="140.6563" x="862.1415" y="330.3751">mf3:Munkafolyamat</text><line style="stroke:#181818;stroke-width:0.5;" x1="820.87" x2="1044.0692" y1="335.6769" y2="335.6769"></line><text fill="#000000" font-family="sans-serif" font-size="14" lengthAdjust="spacing" textLength="213.1992" x="825.87" y="352.672">megnevezes = "Motor javítás"</text><text fill="#000000" font-family="sans-serif" font-size="14" lengthAdjust="spacing" textLength="124.9199" x="825.87" y="368.9689">koltseg = 120000</text></g><g id="elem_mf4"><rect fill="#F1F1F1" height="60.8906" style="stroke:#181818;stroke-width:0.5;" width="251.3398" x="10.8" y="315.38"></rect><text fill="#000000" font-family="sans-serif" font-size="14" lengthAdjust="spacing" textLength="140.6563" x="66.1418" y="330.3751">mf4:Munkafolyamat</text><line style="stroke:#181818;stroke-width:0.5;" x1="11.8" x2="261.1398" y1="335.6769" y2="335.6769"></line><text fill="#000000" font-family="sans-serif" font-size="14" lengthAdjust="spacing" textLength="239.3398" x="16.8" y="352.672">megnevezes = "Futómű beállítás"</text><text fill="#000000" font-family="sans-serif" font-size="14" lengthAdjust="spacing" textLength="116.0127" x="16.8" y="368.9689">koltseg = 35000</text></g><!--link v1 to bv--><g id="link_v1_bv"><path codeline="78" d="M1717.6,67.37 C1668.59,79.96 1605.7,96.89 1550.47,114.19 C1483.6,135.14 1407.5,163.2 1360.22,181.14 " fill="none" id="v1-bv" style="stroke:#181818;stroke-width:1.0;"></path><text fill="#000000" font-family="sans-serif" font-size="13" lengthAdjust="spacing" textLength="112.1377" x="1551.47" y="127.2569">hasznalatiOvezet</text></g><!--link b1 to bv--><g id="link_b1_bv"><path codeline="79" d="M723.08,64.65 C855.52,94.69 1118.93,154.44 1244.61,182.94 " fill="none" id="b1-bv" style="stroke:#181818;stroke-width:1.0;"></path><text fill="#000000" font-family="sans-serif" font-size="13" lengthAdjust="spacing" textLength="112.1377" x="1000.09" y="127.2569">hasznalatiOvezet</text></g><!--link b2 to kv--><g id="link_b2_kv"><path codeline="80" d="M2261.47,84.61 C2261.47,115.6 2261.47,157.94 2261.47,181.38 " fill="none" id="b2-kv" style="stroke:#181818;stroke-width:1.0;"></path><text fill="#000000" font-family="sans-serif" font-size="13" lengthAdjust="spacing" textLength="112.1377" x="2262.47" y="127.2569">hasznalatiOvezet</text></g><!--link v1 to ml1--><g id="link_v1_ml1"><path codeline="82" d="M1851.64,84.64 C1872.26,99.72 1896.63,116.85 1919.47,131.19 C1935.56,141.29 1953.28,151.47 1970.16,160.76 " fill="none" id="v1-ml1" style="stroke:#181818;stroke-width:1.0;"></path><text fill="#000000" font-family="sans-serif" font-size="13" lengthAdjust="spacing" textLength="79.9487" x="1920.47" y="127.2569">munkalapok</text></g><!--link v1 to ml1--><g id="link_v1_ml1"><path codeline="100" d="M1885.36,58.62 C1925.35,68.03 1971.53,84.71 2004.47,114.19 C2018.21,126.49 2025.3635,138.9808 2031.3835,155.3008 " fill="none" id="v1-to-ml1" style="stroke:#0000FF;stroke-width:1.0;"></path><polygon fill="#0000FF" points="2033.46,160.93,2034.0981,151.1018,2031.7296,156.239,2026.5925,153.8705,2033.46,160.93" style="stroke:#0000FF;stroke-width:1.0;"></polygon><text fill="#000000" font-family="sans-serif" font-size="13" lengthAdjust="spacing" textLength="79.9932" x="2018.59" y="127.2569">1: létrehoz()</text></g><!--link v1 to ml2--><g id="link_v1_ml2"><path codeline="83" d="M1717.56,76.28 C1701.58,85.87 1686.92,98.28 1677.47,114.19 C1668.97,128.51 1672.45,145.8 1679.31,161.01 " fill="none" id="v1-ml2" style="stroke:#181818;stroke-width:1.0;"></path><text fill="#000000" font-family="sans-serif" font-size="13" lengthAdjust="spacing" textLength="79.9487" x="1678.47" y="127.2569">munkalapok</text></g><!--link v1 to ml2--><g id="link_v1_ml2"><path codeline="105" d="M1786.71,84.41 C1780.16,99.46 1771.82,116.63 1762.47,131.19 C1755.96,141.34 1751.899,146.9941 1744.019,156.3341 " fill="none" id="v1-to-ml2" style="stroke:#FF0000;stroke-width:1.0;"></path><polygon fill="#FF0000" points="1740.15,160.92,1749.0108,156.6205,1743.3742,157.0984,1742.8963,151.4618,1740.15,160.92" style="stroke:#FF0000;stroke-width:1.0;"></polygon><text fill="#000000" font-family="sans-serif" font-size="13" lengthAdjust="spacing" textLength="79.9932" x="1772.5" y="127.2569">5: létrehoz()</text></g><!--link b1 to ml3--><g id="link_b1_ml3"><path codeline="84" d="M583.03,84.61 C546.07,107.85 498.95,137.48 461.98,160.73 " fill="none" id="b1-ml3" style="stroke:#181818;stroke-width:1.0;"></path><text fill="#000000" font-family="sans-serif" font-size="13" lengthAdjust="spacing" textLength="79.9487" x="530.73" y="127.2569">munkalapok</text></g><!--link b1 to ml3--><g id="link_b1_ml3"><path codeline="109" d="M563.94,53.01 C518.09,60.73 462.55,77.59 426.47,114.19 C414.22,126.63 409.0835,138.8739 405.8635,155.1639 " fill="none" id="b1-to-ml3" style="stroke:#008000;stroke-width:1.0;"></path><polygon fill="#008000" points="404.7,161.05,410.3693,152.9965,405.6696,156.1449,402.5212,151.4452,404.7,161.05" style="stroke:#008000;stroke-width:1.0;"></polygon><text fill="#000000" font-family="sans-serif" font-size="13" lengthAdjust="spacing" textLength="79.9932" x="427.47" y="127.2569">8: létrehoz()</text></g><!--link b1 to ml4--><g id="link_b1_ml4"><path codeline="85" d="M637.32,84.64 C636.17,99.4 636.4,116.31 640.47,131.19 C643.24,141.32 647.97,151.47 653.22,160.71 " fill="none" id="b1-ml4" style="stroke:#181818;stroke-width:1.0;"></path><text fill="#000000" font-family="sans-serif" font-size="13" lengthAdjust="spacing" textLength="79.9487" x="641.47" y="127.2569">munkalapok</text></g><!--link b1 to ml4--><g id="link_b1_ml4"><path codeline="114" d="M702.94,84.44 C712.07,93.05 720.2,103.01 725.47,114.19 C732.78,129.69 730.2426,141.414 720.6326,155.864 " fill="none" id="b1-to-ml4" style="stroke:#800080;stroke-width:1.0;"></path><polygon fill="#800080" points="717.31,160.86,725.6246,155.581,720.0788,156.6966,718.9632,151.1509,717.31,160.86" style="stroke:#800080;stroke-width:1.0;"></polygon><text fill="#000000" font-family="sans-serif" font-size="13" lengthAdjust="spacing" textLength="88.2642" x="729.75" y="127.2569">12: létrehoz()</text></g><!--link ml1 to sz1--><g id="link_ml1_sz1"><path codeline="87" d="M2030.44,238.72 C2024.05,254.13 2015.36,271.52 2004.47,285.38 C1993.07,299.88 1977.46,312.98 1963.43,323.17 " fill="none" id="ml1-sz1" style="stroke:#181818;stroke-width:1.0;"></path><text fill="#000000" font-family="sans-serif" font-size="13" lengthAdjust="spacing" textLength="45.0684" x="2016.81" y="281.4469">szerviz</text></g><!--link ml1 to sz1--><g id="link_ml1_sz1"><path codeline="101" d="M2069.14,238.58 C2076.25,253.96 2079.76,271.38 2070.47,285.38 C2057.1,305.52 2041.0025,316.6609 2018.6125,325.4809 " fill="none" id="ml1-to-sz1" style="stroke:#0000FF;stroke-width:1.0;"></path><polygon fill="#0000FF" points="2013.03,327.68,2022.8698,328.103,2017.6821,325.8474,2019.9377,320.6597,2013.03,327.68" style="stroke:#0000FF;stroke-width:1.0;"></polygon><text fill="#000000" font-family="sans-serif" font-size="13" lengthAdjust="spacing" textLength="64.0098" x="2077.01" y="281.4469">2: rögzít()</text></g><!--link ml2 to sz1--><g id="link_ml2_sz1"><path codeline="88" d="M1705.66,238.51 C1708.05,254.8 1713.52,272.94 1725.47,285.38 C1756.65,317.84 1804.44,332.86 1845.93,339.69 " fill="none" id="ml2-sz1" style="stroke:#181818;stroke-width:1.0;"></path><text fill="#000000" font-family="sans-serif" font-size="13" lengthAdjust="spacing" textLength="45.0684" x="1726.47" y="281.4469">szerviz</text></g><!--link ml2 to sz1--><g id="link_ml2_sz1"><path codeline="106" d="M1749.01,238.84 C1767.96,254.18 1790.68,271.49 1812.47,285.38 C1834.38,299.34 1854.569,310.0368 1876.229,320.5168 " fill="none" id="ml2-to-sz1" style="stroke:#FF0000;stroke-width:1.0;"></path><polygon fill="#FF0000" points="1881.63,323.13,1875.2706,315.6095,1877.1292,320.9523,1871.7863,322.8108,1881.63,323.13" style="stroke:#FF0000;stroke-width:1.0;"></polygon><text fill="#000000" font-family="sans-serif" font-size="13" lengthAdjust="spacing" textLength="64.0098" x="1813.47" y="281.4469">6: rögzít()</text></g><!--link ml3 to sz2--><g id="link_ml3_sz2"><path codeline="89" d="M326.19,238.87 C309.81,252.31 300.29,268.35 311.47,285.38 C323.06,303.05 341.16,315.49 360.44,324.24 " fill="none" id="ml3-sz2" style="stroke:#181818;stroke-width:1.0;"></path><text fill="#000000" font-family="sans-serif" font-size="13" lengthAdjust="spacing" textLength="45.0684" x="312.47" y="281.4469">szerviz</text></g><!--link ml3 to sz2--><g id="link_ml3_sz2"><path codeline="110" d="M394.09,238.81 C392.73,253.73 393.13,270.74 398.47,285.38 C403.69,299.7 409.8818,308.6345 419.8218,318.9745 " fill="none" id="ml3-to-sz2" style="stroke:#008000;stroke-width:1.0;"></path><polygon fill="#008000" points="423.98,323.3,420.6264,314.0397,420.5149,319.6954,414.8591,319.5839,423.98,323.3" style="stroke:#008000;stroke-width:1.0;"></polygon><text fill="#000000" font-family="sans-serif" font-size="13" lengthAdjust="spacing" textLength="64.0098" x="399.47" y="281.4469">9: rögzít()</text></g><!--link ml4 to sz2--><g id="link_ml4_sz2"><path codeline="90" d="M577.55,229.07 C552.14,238.98 526.05,251.88 504.47,268.38 C485.26,283.07 469.64,306.09 459.83,323.04 " fill="none" id="ml4-sz2" style="stroke:#181818;stroke-width:1.0;"></path><text fill="#000000" font-family="sans-serif" font-size="13" lengthAdjust="spacing" textLength="45.0684" x="505.47" y="281.4469">szerviz</text></g><!--link ml4 to sz2--><g id="link_ml4_sz2"><path codeline="115" d="M626.7,238.69 C604.87,253.67 579.25,270.77 555.47,285.38 C534.11,298.51 514.9733,309.2977 494.8733,320.2077 " fill="none" id="ml4-to-sz2" style="stroke:#800080;stroke-width:1.0;"></path><polygon fill="#800080" points="489.6,323.07,499.4181,322.2921,493.9944,320.6848,495.6017,315.2611,489.6,323.07" style="stroke:#800080;stroke-width:1.0;"></polygon><text fill="#000000" font-family="sans-serif" font-size="13" lengthAdjust="spacing" textLength="72.2808" x="580.89" y="281.4469">13: rögzít()</text></g><!--link ml1 to mf1--><g id="link_ml1_mf1"><path codeline="92" d="M2115.29,238.82 C2160.31,262.66 2217.49,292.94 2259.21,315.03 " fill="none" id="ml1-mf1" style="stroke:#181818;stroke-width:1.0;"></path><text fill="#000000" font-family="sans-serif" font-size="13" lengthAdjust="spacing" textLength="117.6475" x="2196.76" y="281.4469">munkafolyamatok</text></g><!--link ml1 to mf1--><g id="link_ml1_mf1"><path codeline="102" d="M2157.64,234.13 C2163.32,235.61 2168.95,237.03 2174.47,238.38 C2239.67,254.32 2279.99,216.42 2322.47,268.38 C2332.93,281.17 2333.1674,293.713 2329.0274,309.223 " fill="none" id="ml1-to-mf1" style="stroke:#0000FF;stroke-width:1.0;"></path><polygon fill="#0000FF" points="2327.48,315.02,2333.6657,307.356,2328.7695,310.1891,2325.9364,305.2929,2327.48,315.02" style="stroke:#0000FF;stroke-width:1.0;"></polygon><text fill="#000000" font-family="sans-serif" font-size="13" lengthAdjust="spacing" textLength="80.9517" x="2330.71" y="281.4469">3: hozzáad()</text></g><!--link ml1 to mf2--><g id="link_ml1_mf2"><path codeline="93" d="M1929.11,221.4 C1895.45,227.2 1858.52,233.3 1824.47,238.38 C1719.46,254.03 1688.73,236.44 1587.47,268.38 C1552.6,279.38 1516.2,298.6 1488.59,315.01 " fill="none" id="ml1-mf2" style="stroke:#181818;stroke-width:1.0;"></path><text fill="#000000" font-family="sans-serif" font-size="13" lengthAdjust="spacing" textLength="117.6475" x="1588.47" y="281.4469">munkafolyamatok</text></g><!--link ml1 to mf2--><g id="link_ml1_mf2"><path codeline="103" d="M1970.77,238.79 C1952.39,248.42 1932.7,258.76 1914.47,268.38 C1900.23,275.89 1897.8,280.45 1882.47,285.38 C1769.47,321.74 1639.1891,335.508 1548.5291,340.988 " fill="none" id="ml1-to-mf2" style="stroke:#0000FF;stroke-width:1.0;"></path><polygon fill="#0000FF" points="1542.54,341.35,1551.7649,344.7997,1547.5309,341.0483,1551.2823,336.8143,1542.54,341.35" style="stroke:#0000FF;stroke-width:1.0;"></polygon><text fill="#000000" font-family="sans-serif" font-size="13" lengthAdjust="spacing" textLength="80.9517" x="1915.47" y="281.4469">4: hozzáad()</text></g><!--link ml2 to mf3--><g id="link_ml2_mf3"><path codeline="94" d="M1601.53,214.85 C1542.97,222.52 1468.2,231.78 1401.47,238.38 C1311.44,247.29 1075.81,226.79 995.47,268.38 C975.61,278.66 959.68,298.21 948.8,314.97 " fill="none" id="ml2-mf3" style="stroke:#181818;stroke-width:1.0;"></path><text fill="#000000" font-family="sans-serif" font-size="13" lengthAdjust="spacing" textLength="117.6475" x="996.47" y="281.4469">munkafolyamatok</text></g><!--link ml2 to mf3--><g id="link_ml2_mf3"><path codeline="107" d="M1601.55,226.7 C1556.47,238.57 1503.09,253.33 1455.47,268.38 C1434.29,275.07 1430.07,280.19 1408.47,285.38 C1286.19,314.74 1148.5413,329.6771 1051.2813,337.3671 " fill="none" id="ml2-to-mf3" style="stroke:#FF0000;stroke-width:1.0;"></path><polygon fill="#FF0000" points="1045.3,337.84,1054.5873,341.1182,1050.2844,337.4459,1053.9567,333.1431,1045.3,337.84" style="stroke:#FF0000;stroke-width:1.0;"></polygon><text fill="#000000" font-family="sans-serif" font-size="13" lengthAdjust="spacing" textLength="80.9517" x="1456.47" y="281.4469">7: hozzáad()</text></g><!--link ml3 to mf2--><g id="link_ml3_mf2"><path codeline="95" d="M515.64,230.35 C530.64,233.48 545.87,236.28 560.47,238.38 C806.3,273.76 877.68,207.55 1118.47,268.38 C1135.63,272.71 1137.69,279.77 1154.47,285.38 C1215.48,305.76 1286.21,320.48 1342.3,330.17 " fill="none" id="ml3-mf2" style="stroke:#181818;stroke-width:1.0;"></path><text fill="#000000" font-family="sans-serif" font-size="13" lengthAdjust="spacing" textLength="117.6475" x="1155.47" y="281.4469">munkafolyamatok</text></g><!--link ml3 to mf2--><g id="link_ml3_mf2"><path codeline="111" d="M515.62,230.52 C530.62,233.62 545.86,236.37 560.47,238.38 C718.45,260.16 1123.57,226.6 1277.47,268.38 C1293.01,272.6 1295,278.31 1309.47,285.38 C1330.04,295.42 1347.1986,303.36 1367.8886,312.57 " fill="none" id="ml3-to-mf2" style="stroke:#008000;stroke-width:1.0;"></path><polygon fill="#008000" points="1373.37,315.01,1366.7745,307.6957,1368.8021,312.9766,1363.5211,315.0043,1373.37,315.01" style="stroke:#008000;stroke-width:1.0;"></polygon><text fill="#000000" font-family="sans-serif" font-size="13" lengthAdjust="spacing" textLength="89.2227" x="1310.47" y="281.4469">10: hozzáad()</text></g><!--link ml3 to mf4--><g id="link_ml3_mf4"><path codeline="96" d="M287.23,205.39 C187.95,212.08 54.93,228.44 21.47,268.38 C6,286.85 20.4,302.6 43.6,314.92 " fill="none" id="ml3-mf4" style="stroke:#181818;stroke-width:1.0;"></path><text fill="#000000" font-family="sans-serif" font-size="13" lengthAdjust="spacing" textLength="117.6475" x="22.47" y="281.4469">munkafolyamatok</text></g><!--link ml3 to mf4--><g id="link_ml3_mf4"><path codeline="112" d="M287.1,230.3 C259.78,240.08 231.58,252.63 207.47,268.38 C188.52,280.76 174.9317,294.6299 162.1217,310.3399 " fill="none" id="ml3-to-mf4" style="stroke:#008000;stroke-width:1.0;"></path><polygon fill="#008000" points="158.33,314.99,167.1176,310.5427,161.4897,311.1149,160.9175,305.4871,158.33,314.99" style="stroke:#008000;stroke-width:1.0;"></polygon><text fill="#000000" font-family="sans-serif" font-size="13" lengthAdjust="spacing" textLength="89.2227" x="208.47" y="281.4469">11: hozzáad()</text></g><!--link ml4 to mf3--><g id="link_ml4_mf3"><path codeline="97" d="M683.44,238.78 C686.61,255.12 692.93,273.23 705.47,285.38 C735.89,314.87 779.06,330.21 819.6,338.03 " fill="none" id="ml4-mf3" style="stroke:#181818;stroke-width:1.0;"></path><text fill="#000000" font-family="sans-serif" font-size="13" lengthAdjust="spacing" textLength="117.6475" x="706.47" y="281.4469">munkafolyamatok</text></g><!--link ml4 to mf3--><g id="link_ml4_mf3"><path codeline="116" d="M771.58,238.83 C790.75,247.81 810.57,257.86 828.47,268.38 C851.85,282.11 871.6168,296.2655 890.9668,311.2555 " fill="none" id="ml4-to-mf3" style="stroke:#800080;stroke-width:1.0;"></path><polygon fill="#800080" points="895.71,314.93,891.0448,306.2561,891.7573,311.8679,886.1455,312.5804,895.71,314.93" style="stroke:#800080;stroke-width:1.0;"></polygon><text fill="#000000" font-family="sans-serif" font-size="13" lengthAdjust="spacing" textLength="89.2227" x="853.36" y="281.4469">14: hozzáad()</text></g><!--SRC=[dLLBRjim4Dth58IxI0lKWKZ9YIkW1P9-W3O8icZHJT45ROzbMPHeY9IAgkWXSeGii-YYAD0B2BbNIP5sBPh98eONr9l7zuOp8-e8NStMC9TeaT6qeWKIA_ujArFKm2gRCn3FaO2goUQW8W1IFTDoiSFclDZGCWCHS2CpQZB6QC45JZxRrGXHWHgCVWG8qPQNN6IIevS8XrWXwNTQIIgojus2I8Wd2glNEQ-oiqgJ9g7v1J-3dSUi5YrEpch9zQhNdntg4w_-TAW_lKUUEFB48qyyyYT3-TE9HnvOGoikadExC0wDSjXZvRLbNTHxhDnXYLOtGXNZerdq95MSFjiIT5AZTtVNDeekbl9uvDbFdFraV_-vAi8RdajUeNDdUr6NEMLqWvDBk-e52cOIoA5TW0GjegeLZKCynfEH2ZIG3b0IQbHccreesERoIJyUlrzmqTAS2vylSNs9ttSonk6URrapTf_V1zfagg4-jyXrY_nksl3mbEe_VTmfOzStzlkUs3e-yfHBsyKbPzzfGQKnMvfM5f2gSO0MH3zItMrUGRdGuuE0CIZlhgksknNQFkTC2aWLBvuueryiYTU3U3ok65tFrJq3Gqrog1bvDIEFvYNNKxocJVTBTZTEjfY41zAnLphsbQIMtP_YxZUQGNV3cCyWsgQkBiFnMB_n2LfHqPQgjJAxqb8oc3qK8pgMUsDMLBzw2TfE3iztC1d2Cmj7VZWUme6MLG5zioJ8NXg15lM0aG7908mFmQse7Z7hjgspijm5YJT8J33o1gE7TjfWx0t6zyi6H-WrBnIQpLNLURdxOWA30aef-b9_UJ9ZDNmTlxATm0bYtQsiOCNRfy_CgVvpJEb8WghkRzggcJcacEf4gkEyRRiRkl1Hz4dZ0SKcKy72vA8P4pSNiaSngPmugUmpJ5bEXpQptYQj04fZf3bJroWQaCmOl72iXXnp9XmwvtP9keiO-rBQrDM6sKRqBE8c5Gzf9YiSEMavB5C4F2ZsFm00]--></g></svg>